<?xml version="1.0" standalone="no"?><!DOCTYPE svg PUBLIC "-//W3C//DTD SVG 1.1//EN" "http://www.w3.org/Graphics/SVG/1.1/DTD/svg11.dtd"><svg class="icon" height="512" viewBox="0 0 1024 1024" version="1.1" xmlns="http://www.w3.org/2000/svg"><path d="M0 0h1024v1024H0z" fill="#1B262D" /><path d="M816.69632 444.416c-10.9056-43.96032-31.744-75.86816-75.95008-75.86816h-61.92128V433.664c0 52.29568-39.424 100.21376-89.984 100.21376H437.11488c-41.55904 0-81.8432 31.65696-81.8432 73.28768v144.64512c0 41.1648 38.73792 65.37728 78.90432 77.17888 48.07168 14.14144 91.89888 16.69632 149.42208 0 38.23616-11.07456 73.65632-33.34656 73.65632-77.17888v-52.53632H506.26048v-21.57056h234.496c44.14464 0 60.60032-31.744 75.95008-77.96224 15.872-47.58528 15.18592-94.30016 0-155.3408z m-218.29632 288.128a28.94848 28.94848 0 1 1-28.4928 28.86656 28.672 28.672 0 0 1 28.48768-28.88192z" fill="#FFD845" /><path d="M585.06752 210.08896a451.55328 451.55328 0 0 0-77.24544-6.20032 458.24 458.24 0 0 0-74.58816 6.20032c-64.28672 11.34592-77.96224 35.11296-77.96224 78.95552v57.91232h150.9888v21.57056H304.15872c-44.14976 0-82.80064 25.37984-94.89408 75.86816-13.94176 57.856-14.56128 94.9248 0 155.3408 10.79808 44.96896 36.58752 77.96224 80.73216 77.96224h50.8928V605.2352c0-50.13504 44.70784-92.9024 96.22528-92.9024h151.72608c42.23488 0 68.41344-36.23936 68.41344-78.6432V289.04448c0-41.17504-30.96064-72.0896-72.18688-78.95552zM427.56096 308.33152a28.94848 28.94848 0 1 1 28.50304-28.8512 28.672 28.672 0 0 1-28.50304 28.8512z" fill="#386E99" /></svg>